<svg width="40" height="41" viewBox="0 0 40 41" fill="none" xmlns="http://www.w3.org/2000/svg">
<path fill-rule="evenodd" clip-rule="evenodd" d="M0 2.43337C0 1.54972 0.716343 0.833374 1.6 0.833374H38.4C39.2837 0.833374 40 1.54972 40 2.43337V39.2334C40 40.117 39.2837 40.8334 38.4 40.8334H1.6C0.716345 40.8334 0 40.117 0 39.2334V2.43337ZM38.4 2.43337H1.6V39.2334H38.4V2.43337Z" fill="#1A1B22"/>
<path d="M23.8124 27.6885L39.222 16.7839V40H0.697941V27.6885L12.2552 22.4121L23.8124 27.6885Z" fill="#1A1B22"/>
<path fill-rule="evenodd" clip-rule="evenodd" d="M12.2266 13.5325C11.7663 13.5325 11.3932 13.9056 11.3932 14.3658C11.3932 14.8261 11.7663 15.1992 12.2266 15.1992C12.6868 15.1992 13.0599 14.8261 13.0599 14.3658C13.0599 13.9056 12.6868 13.5325 12.2266 13.5325ZM9.72656 14.3658C9.72656 12.9851 10.8459 11.8658 12.2266 11.8658C13.6073 11.8658 14.7266 12.9851 14.7266 14.3658C14.7266 15.7466 13.6073 16.8658 12.2266 16.8658C10.8459 16.8658 9.72656 15.7466 9.72656 14.3658Z" fill="#1A1B22"/>
<path fill-rule="evenodd" clip-rule="evenodd" d="M21.9211 19.5002C21.8992 19.3925 21.8877 19.2809 21.8877 19.1667C21.8877 18.6668 22.1078 18.2183 22.4564 17.9128L13.8542 14.0073C13.8796 14.1228 13.8929 14.2427 13.8929 14.3658C13.8929 14.8576 13.6799 15.2997 13.3411 15.6047L21.9211 19.5002ZM24.4718 17.7751L38.5494 7.40527L39.5378 8.74718L25.216 19.2969C25.2193 19.2539 25.221 19.2105 25.221 19.1667C25.221 18.5852 24.9232 18.0733 24.4718 17.7751ZM10.5596 14.3658C10.5596 14.8122 10.735 15.2175 11.0207 15.5167L1.14643 20.142L0.439453 18.6327L10.6394 13.8548C10.5876 14.0159 10.5596 14.1876 10.5596 14.3658Z" fill="#1A1B22"/>
<path fill-rule="evenodd" clip-rule="evenodd" d="M23.5547 18.3334C23.0945 18.3334 22.7214 18.7065 22.7214 19.1667C22.7214 19.627 23.0945 20.0001 23.5547 20.0001C24.0149 20.0001 24.388 19.627 24.388 19.1667C24.388 18.7065 24.0149 18.3334 23.5547 18.3334ZM21.0547 19.1667C21.0547 17.786 22.174 16.6667 23.5547 16.6667C24.9354 16.6667 26.0547 17.786 26.0547 19.1667C26.0547 20.5475 24.9354 21.6667 23.5547 21.6667C22.174 21.6667 21.0547 20.5475 21.0547 19.1667Z" fill="#1A1B22"/>
</svg>
